<svg width="28" height="30" viewBox="0 0 28 30" version="1.1" xmlns="http://www.w3.org/2000/svg" xmlns:xlink="http://www.w3.org/1999/xlink">
<title>Group</title>
<desc>Created using Figma</desc>
<g id="Canvas" transform="translate(-2213 3)">
<g id="Group">
<g id="Group">
<g id="Vector">
<use xlink:href="#path0_fill" transform="translate(2217.47 -3)" fill="#E6A74D"/>
</g>
<g id="Vector">
<use xlink:href="#path1_fill" transform="translate(2215.67 4.43733)" fill="#E6A74D"/>
</g>
<g id="Vector">
<use xlink:href="#path2_fill" transform="translate(2226.58 4.43733)" fill="#E6A74D"/>
</g>
<g id="Vector">
<use xlink:href="#path2_fill" transform="translate(2213 4.43733)" fill="#E6A74D"/>
</g>
<g id="Vector">
<use xlink:href="#path3_fill" transform="translate(2230.72 -0.0334265)" fill="#E6A74D"/>
</g>
<g id="Vector">
<use xlink:href="#path4_fill" transform="translate(2229.09 6.57893)" fill="#E6A74D"/>
</g>
<g id="Vector">
<use xlink:href="#path5_fill" transform="translate(2238.86 6.56824)" fill="#E6A74D"/>
</g>
</g>
</g>
</g>
<defs>
<path id="path0_fill" d="M 3.21727 7.47911C 5.01393 7.47911 6.43454 6.0585 6.43454 4.26184L 6.43454 3.21727C 6.43454 1.4624 5.01393 0 3.21727 0C 1.4624 0 -7.96942e-08 1.42061 -7.96942e-08 3.21727L -7.96942e-08 4.26184C -7.96942e-08 6.01671 1.4624 7.47911 3.21727 7.47911ZM 1.67131 3.21727C 1.67131 2.38162 2.33983 1.67131 3.21727 1.67131C 4.05292 1.67131 4.76323 2.33983 4.76323 3.21727L 4.76323 4.26184C 4.76323 5.09749 4.09471 5.8078 3.21727 5.8078L 3.17549 5.8078C 2.33983 5.8078 1.62953 5.13928 1.62953 4.26184L 1.62953 3.21727L 1.67131 3.21727Z"/>
<path id="path1_fill" d="M 9.56824 0.167131C 9.35933 3.11306e-07 9.06685 -0.0417827 8.81616 0.0835655L 7.60446 0.501393C 5.93315 1.08635 4.13649 1.12813 2.46518 0.543176L 1.08635 0.0417826C 0.835655 -0.0417829 0.543175 3.11306e-07 0.334262 0.167131C 0.125348 0.334262 3.98471e-08 0.584958 3.98471e-08 0.835654L 3.98471e-08 9.48468C 3.98471e-08 9.77716 0.167131 10.0696 0.45961 10.195L 0.45961 19.805C 0.45961 21.3092 1.67131 22.5209 3.17549 22.5209C 3.88579 22.5209 4.55432 22.2284 5.05571 21.7688C 5.5571 22.2284 6.18384 22.5209 6.93593 22.5209C 8.44011 22.5209 9.65181 21.3092 9.65181 19.805L 9.65181 10.3621C 9.86072 10.195 9.94429 9.98607 9.94429 9.73538L 9.94429 0.835654C 9.90251 0.543175 9.77716 0.292479 9.56824 0.167131ZM 1.67131 2.00557L 1.92201 2.08914C 3.92758 2.79944 6.18384 2.79944 8.18941 2.04735L 8.27298 2.00557L 8.27298 9.10863L 5.05571 10.2368L 1.67131 8.9415L 1.67131 2.00557ZM 4.17827 19.8468C 4.17827 20.4318 3.71866 20.8914 3.1337 20.8914C 2.54875 20.8914 2.08914 20.4318 2.08914 19.8468L 2.08914 11.0724L 4.17827 11.7409L 4.17827 19.8468ZM 7.93872 19.8468C 7.93872 20.4318 7.47911 20.8914 6.89415 20.8914C 6.30919 20.8914 5.84958 20.4318 5.84958 19.8468L 5.84958 11.7409L 7.93872 11.0724L 7.93872 19.8468Z"/>
<path id="path2_fill" d="M 0.835655 -3.18777e-07C 0.376045 -3.18777e-07 0 0.376044 0 0.835654L 0 9.94429C 0 10.4039 0.376045 10.7799 0.835655 10.7799C 1.29526 10.7799 1.67131 10.4039 1.67131 9.94429L 1.67131 0.835654C 1.67131 0.376044 1.29526 -3.18777e-07 0.835655 -3.18777e-07Z"/>
<path id="path3_fill" d="M 2.88301 6.81058L 3.00836 6.81058C 4.5961 6.81058 5.89137 5.51532 5.89137 3.92758L 5.89137 2.88301C 5.89137 1.29526 4.5961 -3.98471e-08 3.00836 -3.98471e-08L 2.88301 -3.98471e-08C 1.29526 -3.98471e-08 6.37554e-07 1.29526 6.37554e-07 2.88301L 6.37554e-07 3.92758C 6.37554e-07 5.47354 1.29526 6.81058 2.88301 6.81058ZM 1.67131 2.84123C 1.67131 2.1727 2.21448 1.62953 2.88301 1.62953L 3.00836 1.62953C 3.67688 1.62953 4.22006 2.1727 4.22006 2.84123L 4.22006 3.88579C 4.22006 4.55432 3.67688 5.09749 3.00836 5.09749L 2.88301 5.09749C 2.21448 5.09749 1.67131 4.55432 1.67131 3.88579L 1.67131 2.84123Z"/>
<path id="path4_fill" d="M 8.69081 0.156448C 8.48189 -0.0106828 8.18941 -0.052465 7.93872 0.0728832L 6.85237 0.448928C 5.38997 0.992103 3.76045 0.992103 2.29805 0.49071L 1.08635 0.0728832C 0.835654 -0.0106823 0.543175 0.0311001 0.334262 0.198231C 0.125348 0.365362 -2.96884e-15 0.616058 -2.96884e-15 0.866755L -2.96884e-15 8.63834C -2.96884e-15 8.93082 0.167131 9.18152 0.417827 9.34865L 0.417827 17.9141C 0.417827 19.2929 1.54596 20.4211 2.92479 20.4211C 3.59331 20.4211 4.17827 20.1704 4.5961 19.7525C 5.05571 20.1704 5.64067 20.4211 6.26741 20.4211C 7.64624 20.4211 8.77437 19.2929 8.77437 17.9141L 8.77437 9.39043C 8.9415 9.2233 9.06685 9.01439 9.06685 8.76369L 9.06685 0.824972C 9.06685 0.532493 8.9415 0.281796 8.69081 0.156448ZM 1.67131 1.99489L 1.75487 2.03667C 3.59332 2.66341 5.5571 2.66341 7.39554 2.03667L 7.39554 8.22051L 4.5961 9.18152L 1.62953 8.05338L 1.62953 1.99489L 1.67131 1.99489ZM 3.71866 17.8723C 3.71866 18.3319 3.34262 18.708 2.88301 18.708C 2.4234 18.708 2.04735 18.3319 2.04735 17.8723L 2.04735 10.1425L 3.71866 10.6857L 3.71866 17.8723ZM 7.10306 17.8723C 7.10306 18.3319 6.72702 18.708 6.26741 18.708C 5.8078 18.708 5.43175 18.3319 5.43175 17.8723L 5.43175 10.6857L 7.10306 10.1425L 7.10306 17.8723Z"/>
<path id="path5_fill" d="M 0.835655 -1.59388e-07C 0.376045 -1.59388e-07 6.37554e-07 0.376044 6.37554e-07 0.835654L 6.37554e-07 9.02507C 6.37554e-07 9.48468 0.376045 9.86072 0.835655 9.86072C 1.29527 9.86072 1.67131 9.48468 1.67131 9.02507L 1.67131 0.835654C 1.67131 0.376044 1.29527 -1.59388e-07 0.835655 -1.59388e-07Z"/>
</defs>
</svg>
