<svg width="30" height="28" viewBox="0 0 30 28" version="1.1" xmlns="http://www.w3.org/2000/svg" xmlns:xlink="http://www.w3.org/1999/xlink">
<title>Group</title>
<desc>Created using Figma</desc>
<g id="Canvas" transform="translate(-2214 -79)">
<g id="Group">
<g id="Group">
<g id="Vector">
<use xlink:href="#path0_fill" transform="translate(2214 92.5857)" fill="#E6A74D"/>
</g>
<g id="Vector">
<use xlink:href="#path1_fill" transform="translate(2221.58 79)" fill="#E6A74D"/>
</g>
</g>
</g>
</g>
<defs>
<path id="path0_fill" d="M 29.2857 2.81513C 28.7395 2.22689 27.9832 1.84874 27.1849 1.84874L 26.4706 1.84874L 25.5462 1.47059C 24.8319 1.17647 23.9916 1.17647 23.2773 1.51261L 22.6891 1.76471L 22.0168 1.55462C 21.1765 1.21849 20.2521 1.2605 19.4958 1.72269L 16.4706 3.48739L 11.0084 1.97479C 10.5042 1.84874 10 1.80672 9.4958 1.93277L 6.76471 2.56303L 6.76471 2.14286C 6.76471 0.966387 5.79832 -3.20563e-07 4.62185 -3.20563e-07L 2.14286 -3.20563e-07C 0.966386 -3.20563e-07 0 0.966387 0 2.14286L 0 11.9328C 0 13.1092 0.966386 14.0756 2.14286 14.0756L 4.62185 14.0756C 5.79832 14.0756 6.76471 13.1092 6.76471 11.9748L 15.1681 13.4874C 15.4622 13.5294 15.7983 13.5714 16.0924 13.5714C 17.0588 13.5714 18.0252 13.3193 18.8235 12.7731L 29.0756 6.34454C 29.6639 5.96639 30 5.37815 30 4.70588C 30 4.03361 29.7479 3.36134 29.2857 2.81513ZM 5.08403 11.9748C 5.08403 12.2269 4.87395 12.437 4.62185 12.437L 2.14286 12.437C 1.89076 12.437 1.68067 12.2269 1.68067 11.9748L 1.68067 2.18487C 1.68067 1.93277 1.89076 1.72269 2.14286 1.72269L 4.62185 1.72269C 4.87395 1.72269 5.08403 1.93277 5.08403 2.18487L 5.08403 11.9748ZM 28.1933 4.95798L 17.9412 11.3866C 17.1849 11.8487 16.3445 12.0168 15.4622 11.8487L 6.76471 10.2941L 6.76471 4.32773L 9.87395 3.61345C 10.126 3.57143 10.3361 3.57143 10.5882 3.61345L 18.1092 5.67227C 18.5714 5.79832 18.9496 6.05042 19.2437 6.38655C 19.4118 6.55462 19.4958 6.84874 19.4958 7.10084C 19.4538 7.39496 19.2857 7.68908 19.0336 7.81513L 18.8655 7.94118C 18.6975 8.02521 18.4874 8.06723 18.2773 8.06723L 12.437 7.26891C 11.9748 7.22689 11.5546 7.52101 11.5126 7.98319C 11.4706 8.44538 11.7647 8.86555 12.2269 8.90756L 18.0672 9.70588C 18.1933 9.70588 18.2773 9.7479 18.4034 9.7479C 18.8655 9.7479 19.2857 9.62185 19.7059 9.41177L 19.8739 9.32773C 20.6303 8.90756 21.1345 8.15126 21.1765 7.26891C 21.2185 6.55462 21.0084 5.84034 20.5042 5.33613C 20 4.78992 19.3697 4.41177 18.6975 4.15966L 20.3361 3.19328C 20.6303 3.02521 21.0504 2.98319 21.3866 3.10924L 22.3529 3.52941C 22.563 3.61345 22.8151 3.61345 23.0252 3.52941L 23.9496 3.10924C 24.2437 2.98319 24.5798 2.98319 24.8739 3.10924L 25.9664 3.57143C 26.0504 3.61345 26.1765 3.65546 26.3025 3.65546L 27.1849 3.65546C 27.521 3.65546 27.8151 3.78151 28.0672 4.03361C 28.2773 4.2437 28.3613 4.53782 28.3613 4.78992C 28.3193 4.83193 28.2773 4.91597 28.1933 4.95798Z"/>
<path id="path1_fill" d="M 1.87801 13.6698C 1.92003 13.8799 2.04608 14.0899 2.25617 14.216C 2.38222 14.3 2.55028 14.342 2.71835 14.342C 2.76037 14.342 2.8444 14.342 2.88642 14.342L 21.1637 10.3084C 21.3738 10.2664 21.5839 10.1404 21.7099 9.93027C 21.836 9.76221 21.878 9.51011 21.836 9.30002L 19.9032 0.686577C 19.8192 0.224392 19.357 -0.0697256 18.8948 0.014308L 0.659528 4.04792C 0.197343 4.13196 -0.0967749 4.59414 0.0292756 5.05632L 1.87801 13.6698ZM 19.9873 8.79582L 13.8528 10.1404C 14.6511 9.38406 15.1133 8.33364 15.1133 7.15717C 15.1133 5.35044 13.9368 3.79582 12.2982 3.20759L 18.4326 1.86305L 19.9873 8.79582ZM 7.97045 4.17397C 7.17213 4.93027 6.70995 5.98069 6.70995 7.15717C 6.70995 8.96389 7.88642 10.5185 9.52507 11.1067L 3.3486 12.4513L 1.836 5.47649L 7.97045 4.17397Z"/>
</defs>
</svg>
