<svg width="28" height="30" viewBox="0 0 28 30" version="1.1" xmlns="http://www.w3.org/2000/svg" xmlns:xlink="http://www.w3.org/1999/xlink">
<title>Group</title>
<desc>Created using Figma</desc>
<g id="Canvas" transform="translate(-2212 163)">
<g id="Group">
<g id="Vector">
<use xlink:href="#path0_fill" transform="translate(2212 -163)" fill="#E6A74D"/>
</g>
</g>
</g>
<defs>
<path id="path0_fill" d="M 27.5539 2.65928C 27.8863 2.32687 27.8448 1.82825 27.5539 1.49584L 26.3074 0.249307C 25.975 -0.0831025 25.4764 -0.0831025 25.144 0.249307C 24.8116 0.581717 24.8116 1.08033 25.144 1.41274L 25.7672 2.11911L 23.565 4.44598L 20.0747 4.48753C 19.8254 4.48753 19.6176 4.57064 19.493 4.73684L 17.6232 6.68975L 16.5844 5.81717C 16.252 5.52632 15.7949 5.56787 15.4625 5.85873L 4.20213 16.7867C 4.07748 16.9114 3.99437 17.0776 3.95282 17.2853L 3.62041 19.8199L 0.21321 23.4765C -0.0776487 23.8089 -0.0776487 24.3075 0.254761 24.6399L 5.49022 29.7507C 5.65642 29.9169 5.86418 30 6.07194 30C 6.11349 30 6.19659 30 6.23814 30C 6.529 29.9584 6.73676 29.7507 6.81986 29.5014L 9.27138 23.3518L 13.2188 27.0499C 13.9667 27.7147 15.0886 27.7562 15.8365 27.0914L 16.7091 26.3019C 17.1246 25.928 17.3323 25.4294 17.3739 24.8892C 17.3739 24.349 17.2077 23.8089 16.7922 23.4349L 15.6287 22.2299C 15.8365 22.0222 17.083 20.9003 17.1661 19.1136C 17.2077 18.0748 16.8337 17.036 16.0858 16.0388L 16.626 15.374C 19.9916 18.5319 24.6453 18.5734 24.8531 18.5734C 25.0609 18.5734 25.2271 18.4488 25.2686 18.241L 26.0581 14.7507C 26.0996 14.626 26.0581 14.5014 25.975 14.4183C 25.8919 14.3352 25.8088 14.2521 25.6841 14.2521C 24.2714 14.0443 20.7811 13.2964 19.4514 11.8837L 24.4376 5.85873L 27.5539 2.65928ZM 16.0858 7.56233L 18.9528 10.0139L 15.047 14.7507L 11.8476 11.7175L 16.0858 7.56233ZM 15.6287 24.9723L 14.7561 25.7618C 14.6315 25.8449 14.5068 25.8449 14.3822 25.7618L 9.52069 21.2327C 9.31293 21.0665 9.02208 20.9834 8.77277 21.0249C 8.52346 21.0665 8.27415 21.2742 8.19105 21.5235L 5.73953 27.6731L 1.95836 24.0166L 4.9916 20.7756C 5.11626 20.651 5.19936 20.4848 5.19936 20.3186L 5.53177 17.8255L 10.601 12.9224L 13.9251 16.0388L 11.3905 19.072C 11.0996 19.4044 11.1412 19.8615 11.432 20.1939L 15.6287 24.5152C 15.7118 24.5983 15.7118 24.723 15.7118 24.7645C 15.7534 24.7645 15.7118 24.8892 15.6287 24.9723ZM 15.5456 18.9058C 15.5041 20.0693 14.5899 20.8587 14.5899 20.8587C 14.5484 20.8587 14.5484 20.9003 14.5068 20.9418L 13.1356 19.5291L 15.0055 17.2438C 15.421 17.8255 15.5872 18.3657 15.5456 18.9058ZM 19.9916 8.68421L 18.9113 7.77008L 20.4487 6.10803L 22.1523 6.10803L 19.9916 8.68421Z"/>
</defs>
</svg>
