<svg width="30" height="30" viewBox="0 0 30 30" version="1.1" xmlns="http://www.w3.org/2000/svg" xmlns:xlink="http://www.w3.org/1999/xlink">
<title>Group</title>
<desc>Created using Figma</desc>
<g id="Canvas" transform="translate(-2211 83)">
<g id="Group">
<g id="Vector">
<use xlink:href="#path0_fill" transform="translate(2211 -83)" fill="#E6A74D"/>
</g>
</g>
</g>
<defs>
<path id="path0_fill" d="M 15 0C 6.72702 0 0 6.72702 0 15C 0 23.273 6.72702 30 15 30C 23.273 30 30 23.273 30 15C 30 6.72702 23.3148 0 15 0ZM 28.454 15C 28.454 18.0084 27.4513 20.8078 25.7799 23.0641L 19.3872 16.6713L 21.2256 14.8329L 22.1866 15.7939C 22.3538 15.961 22.5627 16.0446 22.7716 16.0446C 22.9805 16.0446 23.1894 15.961 23.3565 15.7939C 23.6908 15.4596 23.6908 14.9582 23.3565 14.624L 21.4763 12.7437L 22.7716 11.4485L 23.1894 11.8663C 23.3565 12.0334 23.5655 12.117 23.7744 12.117C 23.9833 12.117 24.1922 12.0334 24.3593 11.8663C 24.6936 11.532 24.6936 11.0306 24.3593 10.6964L 19.3872 5.76602C 19.0529 5.43175 18.5515 5.43175 18.2173 5.76602C 17.883 6.10028 17.883 6.60167 18.2173 6.93593L 18.7187 7.43733L 17.4234 8.73259L 15.2089 6.51811C 14.8747 6.18384 14.3733 6.18384 14.039 6.51811C 13.7047 6.85237 13.7047 7.35376 14.039 7.68802L 15.1253 8.77437L 13.2869 10.6128L 6.97772 4.26184C 9.23398 2.59053 11.9916 1.58774 15.0418 1.58774C 22.4373 1.58774 28.454 7.60446 28.454 15ZM 10.7799 15.5014L 11.8245 14.4568L 15.5432 18.1755L 14.7075 19.0111L 10.7799 19.0111L 10.7799 15.5014ZM 14.4986 11.7827L 16.2953 9.98607L 19.9304 13.7883L 18.2173 15.5014L 14.4986 11.7827ZM 21.2674 10.6128L 20.3064 11.5738L 18.6351 9.86072L 19.5961 8.89972L 21.2674 10.6128ZM 1.58774 15C 1.58774 11.9499 2.59053 9.15042 4.30362 6.89415L 10.6546 13.2451L 9.35933 14.5404C 9.1922 14.7075 9.10863 14.9164 9.10863 15.1253L 9.10863 19.4708L 6.60167 21.9777C 6.26741 22.312 6.26741 22.8134 6.60167 23.1476C 6.7688 23.3148 6.97772 23.3983 7.18663 23.3983C 7.39554 23.3983 7.60446 23.3148 7.77159 23.1476L 10.2786 20.6407L 15.0418 20.6407C 15.2507 20.6407 15.4596 20.5571 15.6267 20.39L 16.7131 19.3036L 23.1058 25.6964C 20.8496 27.4095 18.0501 28.4123 15 28.4123C 7.60446 28.454 1.58774 22.4373 1.58774 15Z"/>
</defs>
</svg>
