<svg width="30" height="30" viewBox="0 0 30 30" version="1.1" xmlns="http://www.w3.org/2000/svg" xmlns:xlink="http://www.w3.org/1999/xlink">
<title>Group</title>
<desc>Created using Figma</desc>
<g id="Canvas" transform="translate(-2212 -154)">
<g id="Group">
<g id="Vector">
<use xlink:href="#path0_fill" transform="translate(2224.25 161.583)" fill="#E6A74D"/>
</g>
<g id="Vector">
<use xlink:href="#path1_fill" transform="translate(2212 154)" fill="#E6A74D"/>
</g>
<g id="Vector">
<use xlink:href="#path2_fill" transform="translate(2212 171.875)" fill="#E6A74D"/>
</g>
<g id="Vector">
<use xlink:href="#path3_fill" transform="translate(2218.25 162.917)" fill="#E6A74D"/>
</g>
<g id="Vector">
<use xlink:href="#path4_fill" transform="translate(2224.42 154)" fill="#E6A74D"/>
</g>
<g id="Vector">
<use xlink:href="#path5_fill" transform="translate(2231.67 154)" fill="#E6A74D"/>
</g>
<g id="Vector">
<use xlink:href="#path6_fill" transform="translate(2218.88 154)" fill="#E6A74D"/>
</g>
<g id="Vector">
<use xlink:href="#path7_fill" transform="translate(2218.88 171.875)" fill="#E6A74D"/>
</g>
<g id="Vector">
<use xlink:href="#path8_fill" transform="translate(2212.5 162.955)" fill="#E6A74D"/>
</g>
<g id="Vector">
<use xlink:href="#path9_fill" transform="translate(2239 154)" fill="#E6A74D"/>
</g>
</g>
</g>
<defs>
<path id="path0_fill" d="M 15.375 8.66667L 15.375 5.45833C 15.375 2.45833 12.5833 3.17891e-07 9.125 3.17891e-07C 5.66667 3.17891e-07 2.875 2.45833 2.875 5.45833L 2.875 8.66667L 2.66667 8.66667C 1.20833 8.66667 -1.58946e-07 9.875 -1.58946e-07 11.3333L -1.58946e-07 19.6667C -1.58946e-07 21.125 1.20833 22.3333 2.66667 22.3333L 15.0833 22.3333C 16.5417 22.3333 17.75 21.125 17.75 19.6667L 17.75 11.3333C 17.75 9.95833 16.7083 8.83333 15.375 8.66667ZM 13.7083 8.66667L 4.54167 8.66667L 4.54167 5.45833C 4.54167 3.375 6.58333 1.66667 9.125 1.66667C 11.6667 1.66667 13.7083 3.375 13.7083 5.45833L 13.7083 8.66667Z"/>
<path id="path1_fill" d="M 5.16667 3.16667C 5.16667 5.16667 4.16667 6.41667 2.58333 6.41667C 1 6.41667 0 5.16667 0 3.16667C 0 1.20833 0.958333 0 2.58333 0C 4.20833 0 5.16667 1.20833 5.16667 3.16667ZM 1.66667 3.16667C 1.66667 4.33333 1.95833 4.91667 2.58333 4.91667C 3.20833 4.91667 3.5 4.33333 3.5 3.16667C 3.5 2 3.20833 1.45833 2.58333 1.45833C 1.95833 1.45833 1.66667 2.04167 1.66667 3.16667Z"/>
<path id="path2_fill" d="M 5.16667 3.16667C 5.16667 5.16667 4.16667 6.41667 2.58333 6.41667C 1 6.41667 0 5.16667 0 3.16667C 0 1.20833 0.958333 6.35783e-07 2.58333 6.35783e-07C 4.20833 6.35783e-07 5.16667 1.20833 5.16667 3.16667ZM 1.66667 3.16667C 1.66667 4.33333 1.95833 4.91667 2.58333 4.91667C 3.20833 4.91667 3.5 4.33333 3.5 3.16667C 3.5 2 3.20833 1.45833 2.58333 1.45833C 1.95833 1.45833 1.66667 2 1.66667 3.16667Z"/>
<path id="path3_fill" d="M 5.16667 3.16667C 5.16667 5.16667 4.16667 6.41667 2.58333 6.41667C 1 6.41667 0 5.16667 0 3.16667C 0 1.20833 0.958334 -1.58946e-07 2.58333 -1.58946e-07C 4.20833 -1.58946e-07 5.16667 1.20833 5.16667 3.16667ZM 1.66667 3.20833C 1.66667 4.375 1.95833 4.95833 2.58333 4.95833C 3.20833 4.95833 3.5 4.375 3.5 3.20833C 3.5 2.04167 3.20833 1.5 2.58333 1.5C 1.95833 1.5 1.66667 2.04167 1.66667 3.20833Z"/>
<path id="path4_fill" d="M 5.16667 3.16667C 5.16667 5.16667 4.16667 6.41667 2.58333 6.41667C 1 6.41667 -3.17891e-07 5.16667 -3.17891e-07 3.16667C -3.17891e-07 1.20833 1 0 2.58333 0C 4.16667 0 5.16667 1.20833 5.16667 3.16667ZM 1.66667 3.16667C 1.66667 4.33333 1.95833 4.91667 2.58333 4.91667C 3.20833 4.91667 3.5 4.33333 3.5 3.16667C 3.5 2 3.20833 1.45833 2.58333 1.45833C 1.95833 1.45833 1.66667 2.04167 1.66667 3.16667Z"/>
<path id="path5_fill" d="M 5.16667 3.16667C 5.16667 5.16667 4.16667 6.41667 2.58333 6.41667C 1 6.41667 3.17891e-07 5.16667 3.17891e-07 3.16667C 3.17891e-07 1.20833 0.958334 0 2.58333 0C 4.20833 0 5.16667 1.20833 5.16667 3.16667ZM 1.66667 3.16667C 1.66667 4.33333 1.95833 4.91667 2.58333 4.91667C 3.20833 4.91667 3.5 4.33333 3.5 3.16667C 3.5 2 3.20833 1.45833 2.58333 1.45833C 1.95833 1.45833 1.66667 2.04167 1.66667 3.16667Z"/>
<path id="path6_fill" d="M 3.04167 0.791667L 3.04167 5.58333C 3.04167 6.125 2.75 6.41667 2.25 6.41667C 1.70833 6.41667 1.45833 6.125 1.45833 5.58333L 1.45833 2L 1.04167 2.16667C 0.958333 2.20833 0.875 2.25 0.75 2.25C 0.333333 2.25 0 1.875 0 1.45833C 0 1.16667 0.166667 0.916667 0.458333 0.791667L 1.875 0.0833333C 2 0.0416667 2.125 0 2.25 0C 2.66667 0 3.04167 0.375 3.04167 0.791667Z"/>
<path id="path7_fill" d="M 3.04167 0.791666L 3.04167 5.58333C 3.04167 6.125 2.75 6.41667 2.25 6.41667C 1.70833 6.41667 1.45833 6.125 1.45833 5.58333L 1.45833 1.95833L 1.04167 2.125C 0.958333 2.16667 0.875 2.20833 0.75 2.20833C 0.333333 2.20833 0 1.83333 0 1.41667C 0 1.125 0.166667 0.875 0.458333 0.75L 1.91667 0.0833327C 2.04167 0.041666 2.16667 6.35783e-07 2.25 6.35783e-07C 2.66667 6.35783e-07 3.04167 0.375 3.04167 0.791666Z"/>
<path id="path8_fill" d="M 3 0.794834L 3 5.5865C 3 6.12817 2.70833 6.41984 2.20833 6.41984C 1.66667 6.41984 1.41667 6.12817 1.41667 5.5865L 1.41667 1.9615L 1.04167 2.12817C 0.958333 2.16983 0.875 2.2115 0.75 2.2115C 0.333333 2.2115 1.98682e-08 1.8365 1.98682e-08 1.41983C 1.98682e-08 1.12817 0.166667 0.878168 0.458333 0.753168L 1.91667 0.0865016C 2.04167 0.044835 2.16667 0.00316797 2.25 0.00316797C 2.625 -0.0384987 3 0.336501 3 0.794834Z"/>
<path id="path9_fill" d="M 3 0.791667L 3 5.58333C 3 6.125 2.70833 6.41667 2.20833 6.41667C 1.66667 6.41667 1.41667 6.125 1.41667 5.58333L 1.41667 2L 1.04167 2.16667C 0.958335 2.20833 0.874999 2.25 0.749999 2.25C 0.333333 2.25 1.27157e-06 1.875 1.27157e-06 1.45833C 1.27157e-06 1.16667 0.166667 0.916667 0.458334 0.791667L 1.91667 0.125C 1.95833 0.0416667 2.08333 0 2.20833 0C 2.625 0 3 0.375 3 0.791667Z"/>
</defs>
</svg>
