<svg width="21" height="17" viewBox="0 0 21 17" version="1.1" xmlns="http://www.w3.org/2000/svg" xmlns:xlink="http://www.w3.org/1999/xlink">
<title>Group</title>
<desc>Created using Figma</desc>
<g id="Canvas" transform="translate(-168 433)">
<g id="Group">
<g id="Canvas">
<g id="map  1">
<g id="Rectangle 53">
<g id="Vector">
<use xlink:href="#path0_fill" transform="translate(168.868 -432.364)" fill="#E6A74D"/>
</g>
</g>
<g id="Line">
<g id="Vector">
<use xlink:href="#path1_fill" transform="translate(174.777 -431.455)" fill="#E6A74D"/>
</g>
</g>
<g id="Line Copy">
<g id="Vector">
<use xlink:href="#path1_fill" transform="translate(181.141 -429.636)" fill="#E6A74D"/>
</g>
</g>
</g>
</g>
</g>
</g>
<defs>
<path id="path0_fill" d="M 0.909091 2.72728L 0.64174 1.85839C 0.260295 1.97576 0 2.32818 0 2.72728L 0.909091 2.72728ZM 6.81818 0.909098L 7.06791 0.0349845C 6.89868 -0.0133701 6.71905 -0.0115519 6.55082 0.0402072L 6.81818 0.909098ZM 13.1818 2.72728L 12.9321 3.60139C 13.1013 3.64975 13.281 3.64793 13.4492 3.59617L 13.1818 2.72728ZM 19.0909 0.909098L 20 0.909098C 20 0.620602 19.863 0.34923 19.631 0.177834C 19.399 0.00643901 19.0993 -0.0446337 18.8235 0.0402072L 19.0909 0.909098ZM 19.0909 13.6364L 19.3583 14.5053C 19.7397 14.3879 20 14.0355 20 13.6364L 19.0909 13.6364ZM 13.1818 15.4546L 12.9321 16.3286C 13.1013 16.377 13.281 16.3752 13.4492 16.3235L 13.1818 15.4546ZM 6.81818 13.6364L 7.06791 12.7623C 6.89868 12.7139 6.71905 12.7157 6.55082 12.7675L 6.81818 13.6364ZM 0.909091 15.4546L 0 15.4546C 0 15.7431 0.136936 16.0144 0.369 16.1858C 0.601062 16.3572 0.900703 16.4083 1.17644 16.3235L 0.909091 15.4546ZM 1.17644 3.59617L 7.08555 1.77799L 6.55082 0.0402072L 0.64174 1.85839L 1.17644 3.59617ZM 6.56845 1.78321L 12.9321 3.60139L 13.4315 1.85317L 7.06791 0.0349845L 6.56845 1.78321ZM 13.4492 3.59617L 19.3583 1.77799L 18.8235 0.0402072L 12.9145 1.85839L 13.4492 3.59617ZM 18.1818 0.909098L 18.1818 13.6364L 20 13.6364L 20 0.909098L 18.1818 0.909098ZM 18.8235 12.7675L 12.9145 14.5856L 13.4492 16.3235L 19.3583 14.5053L 18.8235 12.7675ZM 13.4315 14.5805L 7.06791 12.7623L 6.56845 14.5105L 12.9321 16.3286L 13.4315 14.5805ZM 6.55082 12.7675L 0.64174 14.5856L 1.17644 16.3235L 7.08555 14.5053L 6.55082 12.7675ZM 1.81818 15.4546L 1.81818 2.72728L 0 2.72728L 0 15.4546L 1.81818 15.4546Z"/>
<path id="path1_fill" d="M 1.81818 0.909091L 1.81818 0L 0 0L 0 0.909091L 1.81818 0.909091ZM 0 11.8182L 0 12.7273L 1.81818 12.7273L 1.81818 11.8182L 0 11.8182ZM 0 0.909091L 0 11.8182L 1.81818 11.8182L 1.81818 0.909091L 0 0.909091Z"/>
</defs>
</svg>
