<svg width="18" height="18" viewBox="0 0 18 18" version="1.1" xmlns="http://www.w3.org/2000/svg" xmlns:xlink="http://www.w3.org/1999/xlink">
<title>search-1</title>
<desc>Created using Figma</desc>
<g id="Canvas" transform="translate(320 -471)">
<g id="search-1">
<g id="Oval 21">
<use xlink:href="#path0_stroke" transform="translate(-319 472)" fill="#E6A74D"/>
</g>
<g id="Line">
<use xlink:href="#path1_stroke" transform="translate(-307.8 483.2)" fill="#E6A74D"/>
</g>
</g>
</g>
<defs>
<path id="path0_stroke" d="M 6.4 13.8C 10.4869 13.8 13.8 10.4869 13.8 6.4L 11.8 6.4C 11.8 9.38234 9.38234 11.8 6.4 11.8L 6.4 13.8ZM 13.8 6.4C 13.8 2.31309 10.4869 -1 6.4 -1L 6.4 1C 9.38234 1 11.8 3.41766 11.8 6.4L 13.8 6.4ZM 6.4 -1C 2.31309 -1 -1 2.31309 -1 6.4L 1 6.4C 1 3.41766 3.41766 1 6.4 1L 6.4 -1ZM -1 6.4C -1 10.4869 2.31309 13.8 6.4 13.8L 6.4 11.8C 3.41766 11.8 1 9.38234 1 6.4L -1 6.4Z"/>
<path id="path1_stroke" d="M 4.09289 5.50711C 4.48342 5.89763 5.11658 5.89763 5.50711 5.50711C 5.89763 5.11658 5.89763 4.48342 5.50711 4.09289L 4.09289 5.50711ZM 0.707107 -0.707107C 0.316583 -1.09763 -0.316583 -1.09763 -0.707107 -0.707107C -1.09763 -0.316583 -1.09763 0.316583 -0.707107 0.707107L 0.707107 -0.707107ZM 5.50711 4.09289L 0.707107 -0.707107L -0.707107 0.707107L 4.09289 5.50711L 5.50711 4.09289Z"/>
</defs>
</svg>
